<?xml version="1.0" encoding="UTF-8" standalone="no"?><!DOCTYPE svg PUBLIC "-//W3C//DTD SVG 1.1//EN" "http://www.w3.org/Graphics/SVG/1.1/DTD/svg11.dtd"><svg width="100%" height="100%" viewBox="0 0 329 111" version="1.1" xmlns="http://www.w3.org/2000/svg" xmlns:xlink="http://www.w3.org/1999/xlink" xml:space="preserve" xmlns:serif="http://www.serif.com/" style="fill-rule:evenodd;clip-rule:evenodd;stroke-linejoin:round;stroke-miterlimit:2;"><g><g><path d="M56.096,48.745l19.173,0l-6.464,32.321c-3.944,2.995 -8.528,5.277 -13.75,6.848c-5.222,1.57 -10.719,2.356 -16.489,2.356c-7.742,0 -14.517,-1.406 -20.324,-4.218c-5.807,-2.812 -10.299,-6.775 -13.476,-11.887c-3.177,-5.113 -4.766,-10.993 -4.766,-17.639c0,-8.838 2.045,-16.745 6.135,-23.72c4.09,-6.975 9.824,-12.435 17.201,-16.379c7.377,-3.944 15.85,-5.916 25.418,-5.916c15.193,0 26.331,4.711 33.416,14.133l-15.558,12.271c-2.483,-3.068 -5.222,-5.241 -8.217,-6.519c-2.995,-1.278 -6.537,-1.917 -10.627,-1.917c-5.186,0 -9.733,1.15 -13.64,3.451c-3.908,2.301 -6.921,5.46 -9.039,9.477c-2.118,4.017 -3.177,8.582 -3.177,13.695c0,5.259 1.716,9.441 5.149,12.545c3.433,3.104 8.254,4.656 14.462,4.656c3.725,0 7.122,-0.621 10.189,-1.863l4.382,-21.693l0.002,-0.002Z" style="fill:#fff;fill-rule:nonzero;"/><path d="M94.108,15.517l1.327,-4l20.817,0l-1.327,4l-20.817,0Z" style="fill:#f9ff8c;"/><path d="M113.431,26.263l-1.901,8l-20.817,0l1.901,-8l20.817,0Z" style="fill:#f9ff8c;"/><path d="M92.614,25.092l1.494,-8l20.817,0l-1.494,8l-20.817,0Z" style="fill:#f9ff8c;"/><path d="M111.53,35.472l-10.624,53.262l-20.817,0l10.624,-53.262l20.817,0Z" style="fill:#f9ff8c;"/><path d="M95.436,10l0.869,-2l20.817,0l-0.869,2l-20.817,0Z" style="fill:#f9ff8c;fill-rule:nonzero;"/><path d="M188.775,29.352l-38.018,62.012c-3.141,5.04 -6.154,8.966 -9.039,11.778c-2.885,2.812 -5.935,4.821 -9.148,6.026c-3.214,1.205 -6.975,1.808 -11.285,1.808c-3.141,0 -6.263,-0.475 -9.368,-1.424c-3.104,-0.95 -5.569,-2.191 -7.395,-3.725l9.313,-14.681c2.629,2.264 5.697,3.396 9.203,3.396c1.899,0 3.506,-0.42 4.821,-1.26c1.315,-0.84 2.629,-2.209 3.944,-4.109l-13.476,-59.821l20.707,0l7.45,36.484l21.912,-36.484l20.379,0Z" style="fill:#fff;fill-rule:nonzero;"/><path d="M229.86,28.366c4.382,0 8.491,1.077 12.326,3.232c3.835,2.155 6.921,5.277 9.258,9.368c2.337,4.09 3.506,8.874 3.506,14.353c0,6.501 -1.443,12.362 -4.328,17.585c-2.885,5.222 -6.793,9.331 -11.723,12.326c-4.93,2.995 -10.317,4.492 -16.16,4.492c-8.619,0 -14.681,-2.703 -18.187,-8.108l-5.697,28.376l-20.817,0l16.106,-80.637l19.721,0l-1.205,5.588c4.748,-4.382 10.481,-6.574 17.201,-6.574l-0.001,-0.001Zm-10.08,44.592c4.163,0 7.56,-1.534 10.189,-4.602c2.629,-3.068 3.944,-7.048 3.944,-11.942c0,-3.506 -1.004,-6.282 -3.013,-8.327c-2.009,-2.045 -4.766,-3.068 -8.272,-3.068c-4.163,0 -7.56,1.534 -10.189,4.602c-2.629,3.068 -3.944,7.085 -3.944,12.052c0,3.506 1.004,6.263 3.013,8.272c2.009,2.009 4.766,3.013 8.272,3.013Z" style="fill:#fff;fill-rule:nonzero;"/><path d="M307.43,28.366c6.428,0 11.614,1.753 15.558,5.259c3.944,3.506 5.916,8.546 5.916,15.12c0,2.41 -0.256,4.784 -0.767,7.122l-6.574,32.869l-20.817,0l6.135,-30.896c0.292,-1.242 0.438,-2.556 0.438,-3.944c0,-5.259 -2.739,-7.888 -8.217,-7.888c-3.652,0 -6.647,1.114 -8.984,3.342c-2.337,2.228 -3.981,5.569 -4.93,10.025l-5.916,29.363l-20.817,0l16.215,-81.295l20.817,0l-5.369,26.843c5.04,-3.944 10.81,-5.916 17.311,-5.916l0.001,-0.004Z" style="fill:#fff;fill-rule:nonzero;"/></g></g></svg>