<svg width="265" height="23" viewBox="0 0 265 23" fill="none" xmlns="http://www.w3.org/2000/svg">
<g clip-path="url(#clip0_6521_1223)">
<path d="M210.968 22.0812C210.383 22.4056 209.771 22.6488 209.132 22.811C208.494 22.9461 207.855 23.0272 207.19 23.0272C206.419 23.0272 205.7 22.8921 205.062 22.6218C204.423 22.3515 203.865 21.9731 203.412 21.5137C202.96 21.0272 202.588 20.4596 202.348 19.811C202.082 19.1623 201.949 18.4326 201.949 17.6488C201.949 16.865 202.082 16.1353 202.348 15.4867C202.614 14.838 202.96 14.2704 203.412 13.7839C203.865 13.2975 204.423 12.9191 205.062 12.6488C205.7 12.3785 206.419 12.2434 207.19 12.2434C208.68 12.2434 209.904 12.7299 210.835 13.6758L210.143 14.4056C209.984 14.2164 209.797 14.0542 209.584 13.8921C209.372 13.7299 209.106 13.5948 208.866 13.4867C208.6 13.3785 208.334 13.2975 208.041 13.2164C207.749 13.1353 207.483 13.1353 207.19 13.1353C206.525 13.1353 205.94 13.2434 205.408 13.4867C204.876 13.7299 204.423 14.0272 204.051 14.4326C203.678 14.838 203.386 15.3245 203.2 15.865C202.987 16.4056 202.907 17.0002 202.907 17.6488C202.907 18.2975 203.013 18.8921 203.2 19.4326C203.412 19.9731 203.678 20.4596 204.051 20.865C204.423 21.2704 204.876 21.5948 205.408 21.811C205.94 22.0542 206.525 22.1623 207.19 22.1623C207.722 22.1623 208.254 22.1083 208.707 22.0272C209.185 21.9461 209.611 21.7839 210.01 21.5407V18.0812H207.589V17.2164H210.968V22.0812Z" fill="white"/>
<path d="M217.406 12.4865H220.066C220.066 12.4865 220.385 12.4865 220.598 12.4865C220.838 12.4865 221.077 12.5135 221.343 12.5676C221.609 12.6216 221.875 12.7027 222.168 12.8108C222.434 12.9189 222.7 13.0811 222.913 13.2703C223.126 13.4865 223.312 13.7297 223.445 14.027C223.578 14.3243 223.658 14.7027 223.658 15.1622C223.658 15.6487 223.578 16.0541 223.418 16.3784C223.259 16.7027 223.046 16.946 222.78 17.1622C222.514 17.3784 222.248 17.5135 221.955 17.5946C221.662 17.6757 221.37 17.7568 221.077 17.8108L224.003 22.7297H222.939L220.093 17.8649H218.337V22.7297H217.406V12.4595V12.4865ZM218.337 17H220.332C220.838 17 221.237 16.946 221.529 16.8108C221.822 16.6757 222.088 16.5406 222.248 16.3514C222.407 16.1622 222.54 15.973 222.593 15.7568C222.647 15.5406 222.673 15.3514 222.673 15.1892C222.673 15.027 222.647 14.8108 222.593 14.6216C222.54 14.4054 222.407 14.2162 222.248 14.027C222.088 13.8379 221.849 13.6757 221.529 13.5676C221.21 13.4595 220.811 13.3784 220.332 13.3784H218.337V17.027V17Z" fill="white"/>
<path d="M228.899 17.6217C228.899 16.8379 229.032 16.1082 229.298 15.4596C229.564 14.8109 229.91 14.2433 230.362 13.7568C230.814 13.2704 231.373 12.892 232.012 12.6217C232.65 12.3514 233.368 12.2163 234.14 12.2163C234.911 12.2163 235.63 12.3514 236.268 12.6217C236.907 12.892 237.465 13.2704 237.918 13.7568C238.37 14.2433 238.742 14.8109 238.982 15.4596C239.221 16.1082 239.381 16.8379 239.381 17.6217C239.381 18.4055 239.248 19.1352 238.982 19.7839C238.716 20.4596 238.37 21.0271 237.918 21.4866C237.465 21.9731 236.907 22.3244 236.268 22.5947C235.63 22.865 234.911 23.0001 234.14 23.0001C233.368 23.0001 232.65 22.865 232.012 22.5947C231.373 22.3244 230.814 21.946 230.362 21.4866C229.91 21.0001 229.537 20.4325 229.298 19.7839C229.032 19.1352 228.899 18.4055 228.899 17.6217ZM229.83 17.6217C229.83 18.2704 229.936 18.865 230.123 19.4055C230.336 19.946 230.602 20.4325 230.974 20.8379C231.346 21.2433 231.799 21.5677 232.331 21.7839C232.863 22.0271 233.448 22.1352 234.113 22.1352C234.778 22.1352 235.364 22.0271 235.896 21.7839C236.428 21.5406 236.88 21.2433 237.253 20.8379C237.625 20.4325 237.918 19.946 238.104 19.4055C238.317 18.865 238.396 18.2704 238.396 17.6217C238.396 16.9731 238.29 16.3785 238.104 15.8379C237.891 15.2974 237.625 14.8109 237.253 14.4055C236.88 14.0001 236.428 13.6758 235.896 13.4596C235.364 13.2163 234.778 13.1082 234.113 13.1082C233.448 13.1082 232.863 13.2163 232.331 13.4596C231.799 13.7028 231.346 14.0001 230.974 14.4055C230.602 14.8109 230.309 15.2974 230.123 15.8379C229.91 16.3785 229.83 16.9731 229.83 17.6217Z" fill="white"/>
<path d="M252.443 18.8109C252.443 19.3514 252.39 19.892 252.257 20.3785C252.124 20.892 251.938 21.3244 251.645 21.7028C251.352 22.0812 250.98 22.4055 250.501 22.6217C250.022 22.865 249.464 22.9731 248.772 22.9731C248.08 22.9731 247.522 22.865 247.043 22.6217C246.564 22.3785 246.191 22.0812 245.899 21.7028C245.606 21.3244 245.393 20.865 245.287 20.3785C245.154 19.865 245.101 19.3514 245.101 18.8109V12.4866H246.032V18.5677C246.032 18.946 246.058 19.3244 246.138 19.7298C246.191 20.1352 246.324 20.5406 246.537 20.892C246.75 21.2433 247.016 21.5406 247.362 21.7839C247.708 22.0271 248.187 22.1352 248.772 22.1352C249.357 22.1352 249.836 22.0271 250.182 21.7839C250.528 21.5406 250.82 21.2704 251.007 20.892C251.193 20.5136 251.326 20.1352 251.406 19.7298C251.485 19.3244 251.512 18.919 251.512 18.5677V12.4866H252.443V18.8109Z" fill="white"/>
<path d="M258.828 12.4866H261.728C262.074 12.4866 262.446 12.5406 262.845 12.6217C263.244 12.7028 263.59 12.8379 263.909 13.0541C264.229 13.2433 264.495 13.5406 264.681 13.892C264.894 14.2433 265 14.6758 265 15.2163C265 15.6758 264.92 16.0812 264.761 16.4325C264.601 16.7839 264.362 17.0541 264.096 17.2704C263.83 17.4866 263.484 17.6487 263.138 17.7568C262.792 17.865 262.393 17.919 261.994 17.919H259.812V22.7839H258.881V12.5136L258.828 12.4866ZM259.759 17.0001H261.888C262.154 17.0001 262.42 16.9731 262.659 16.892C262.925 16.8379 263.138 16.7298 263.351 16.5947C263.564 16.4595 263.723 16.2704 263.83 16.0271C263.963 15.7839 264.016 15.5136 264.016 15.1622C264.016 14.8109 263.963 14.5406 263.83 14.3244C263.697 14.0812 263.537 13.892 263.324 13.7568C263.111 13.5947 262.872 13.4866 262.606 13.4325C262.34 13.3785 262.074 13.3244 261.808 13.3244H259.733V16.9731L259.759 17.0001Z" fill="white"/>
<path d="M9.8966 0C14.6321 0 17.9043 1.21622 17.9043 5.59459C17.9043 10.3243 13.5679 10.0541 10.003 10.9189C11.7589 10.9189 13.8073 11.9459 15.7228 15.2432C17.7447 18.8649 20.006 21.8108 21.1234 22.4865V22.7568C20.6977 22.7568 19.7134 22.7568 18.729 22.7568H17.319C16.8668 22.7568 16.5209 22.7568 16.3081 22.7568C15.4302 21.3784 14.3394 19.5405 13.0358 17.2973C12.2909 16 11.5726 14.6757 10.6681 13.4595C9.84339 12.4054 8.99207 11.973 8.16735 11.973C6.4115 11.973 5.6666 14.2432 5.45377 15.7027V20.1892C5.45377 21.5676 5.79962 22.4595 7.18301 22.4595V22.7297C5.58679 22.6486 4.68226 22.6216 3.69792 22.6216C2.82 22.6216 1.91547 22.6216 0.319245 22.7297V22.4595C1.86226 22.4595 2.04849 21.4324 2.04849 19.8919V3.32432C2.07509 1.27027 1.78245 0.27027 0 0.27027V0H9.8966ZM5.45377 14.3784C6.09226 12.3514 7.31603 11.3514 8.64622 10.6757C9.31131 10.3514 9.97641 10.0811 10.6415 9.86487C11.9983 9.45946 13.1955 8.89189 13.9404 7.83784C14.3128 7.2973 14.5256 6.54054 14.5523 5.59459V5.2973C14.5523 1.64865 11.9451 0.297297 8.93886 0.297297H5.45377V14.3784Z" fill="white"/>
<path d="M21.1233 22.7838V22.5135C22.9057 22.5135 23.1984 21.5135 23.1984 19.4595V2.83784C23.1984 1.2973 23.0121 0.27027 21.4691 0.27027V0H39.001V0.0810811L39.9055 5L39.6927 5.08108C37.0855 1.40541 35.0637 0.297297 30.0621 0.297297H26.5771V9.7027H27.6678C32.4299 9.7027 33.7601 8.81081 34.5848 6.02703H34.7444V13.6216H34.5848C33.3344 10.973 32.4299 9.94595 27.6678 9.94595H26.5771V22.4865H29.4237C34.2389 22.4865 37.0057 21.4054 39.6927 17.4054L39.8789 17.4595L38.9744 22.7838H21.0967H21.1233Z" fill="white"/>
<path d="M44.2688 22.7838V22.5135C46.0512 22.5135 46.3439 21.5135 46.3439 19.4595V2.83784C46.3439 1.2973 46.1577 0.27027 44.6146 0.27027V0H55.2295C58.9275 0 61.7741 1.08108 61.7741 5.16216C61.7741 9.24324 57.6239 10.4054 55.3094 10.4054C59.1935 11.7568 63.2373 12.4595 63.5831 16.8919C63.5831 17.1081 63.5831 17.3243 63.5831 17.5405C63.5831 19.3243 62.918 20.7297 61.4814 21.5946C60.0182 22.4865 57.9165 22.8108 55.5754 22.8108H44.2422L44.2688 22.7838ZM49.7226 0.297297V4.62162C50.1482 7.89189 52.3031 9.2973 54.9369 10.2432C57.4643 10.1081 58.3954 8.13513 58.3954 5.16216C58.3954 1.37838 56.2139 0.297297 53.6865 0.297297H49.7226ZM49.7226 5.97297V22.4865H54.5911C57.5707 22.4865 60.2044 21.4595 60.2044 16.8919C60.2044 11.4054 54.3782 12.3243 50.7867 7.94595C50.3345 7.37838 49.962 6.72973 49.696 5.97297H49.7226Z" fill="white"/>
<path d="M66.0041 22.7838V22.5135C67.7866 22.5135 68.0792 21.5135 68.0792 19.4595V2.83784C68.0792 1.2973 67.893 0.27027 66.35 0.27027V0H83.8819V0.0810811L84.7864 5L84.5736 5.08108C81.9664 1.40541 79.9445 0.297297 74.943 0.297297H71.4579V9.7027H72.5487C77.3107 9.7027 78.6409 8.81081 79.4656 6.02703H79.6253V13.6216H79.4656C78.2153 10.973 77.3107 9.94595 72.5487 9.94595H71.4579V22.4865H74.3045C79.1198 22.4865 81.8866 21.4054 84.5736 17.4054L84.7598 17.4595L83.8553 22.7838H65.9775H66.0041Z" fill="white"/>
<path d="M89.1494 0.27027V0C90.8521 0.0810811 91.863 0.135135 92.9005 0.135135C93.9381 0.135135 94.949 0.0810811 96.7315 0V0.27027C95.0022 0.27027 94.6298 1.16216 94.6298 3.05405V22.4865H98.1149C103.09 22.4865 105.112 21.3514 107.745 17.7027C107.825 17.7027 107.905 17.7838 107.958 17.8108L107.054 22.7027V22.7838H89.5219V22.5135C91.0649 22.5135 91.2511 21.4865 91.2511 19.9459V3.32432C91.2511 1.78378 91.0915 0.837838 90.2402 0.459459C89.9475 0.324324 89.6017 0.27027 89.1494 0.27027Z" fill="white"/>
<path d="M110.991 0.27027V0C112.693 0.0810811 113.704 0.135135 114.742 0.135135C115.779 0.135135 116.79 0.0810811 118.573 0V0.27027C116.844 0.27027 116.471 1.16216 116.471 3.05405V22.4865H119.956C124.931 22.4865 126.953 21.3514 129.587 17.7027C129.667 17.7027 129.746 17.7838 129.8 17.8108L128.895 22.7027V22.7838H111.363V22.5135C112.906 22.5135 113.092 21.4865 113.092 19.9459V3.32432C113.092 1.78378 112.933 0.837838 112.081 0.459459C111.789 0.324324 111.443 0.27027 110.991 0.27027Z" fill="white"/>
<path d="M134.642 22.7297C134.216 22.7297 133.843 22.7297 133.498 22.7838V22.5135C135.36 22.5135 135.573 21.6757 135.573 19.7297V2.83784C135.573 1.2973 135.386 0.27027 133.843 0.27027V0C135.333 0.108108 136.238 0.162162 137.169 0.162162C138.153 0.162162 139.084 0.108108 140.707 0V0.27027C139.164 0.27027 138.978 1.24324 138.978 2.75676V19.7297C138.978 21.6216 139.35 22.5135 141.08 22.5135V22.7838C139.829 22.7027 138.605 22.6757 137.462 22.6757C136.318 22.6757 135.36 22.6757 134.642 22.7297Z" fill="white"/>
<path d="M155.978 0C162.416 0 167.072 4.89189 167.072 11.3243C167.072 17.7568 162.23 22.7838 156.031 22.7838C149.832 22.7838 144.964 17.7838 144.964 11.3243C144.964 4.86486 149.646 0 155.978 0ZM156.031 22.4865C161.432 22.4865 163.693 16.8649 163.693 11.3784C163.693 5.89189 161.565 0.297297 156.004 0.297297C150.444 0.297297 148.343 5.59459 148.343 11.3514C148.343 17.1081 150.551 22.4865 156.031 22.4865Z" fill="white"/>
<path d="M172.153 19.7297V2.27027C171.754 1.54054 171.461 1 171.248 0.621622C171.115 0.378378 171.009 0.189189 170.902 0H174.786C175.212 0.810811 177.154 4.35135 179.362 8.40541L181.624 12.5676C183.113 15.3514 184.577 18.027 185.641 19.9189V3.05405C185.641 1.10811 185.428 0.27027 183.566 0.27027V0C185.667 0.0810811 186.173 0.0810811 188.009 0V0.27027C186.146 0.27027 185.933 0.918919 185.933 3.08108V20.4595C186.333 21.1892 186.652 21.7568 186.865 22.1351C186.998 22.3784 187.104 22.5946 187.21 22.7838H183.353C182.076 20.4324 175.505 8.35135 172.445 2.78378V19.8108C172.445 21.8649 172.658 22.5135 174.52 22.5135V22.7838C172.685 22.7027 172.179 22.7027 170.078 22.7838V22.5135C171.94 22.5135 172.153 21.6757 172.153 19.7297Z" fill="white"/>
</g>
<defs>
<clipPath id="clip0_6521_1223">
<rect width="265" height="23" fill="white"/>
</clipPath>
</defs>
</svg>
